<?xml version="1.0" encoding="UTF-8"?>
<svg xmlns="http://www.w3.org/2000/svg" height="16px" viewBox="0 0 16 16" width="16px"><path d="m 4.921875 0.03125 l -4.3125 7.46875 c -0.058594 0.097656 -0.097656 0.203125 -0.117187 0.316406 c -0.316407 0.65625 -0.492188 1.398438 -0.492188 2.171875 c 0 2.753907 2.246094 5 5 5 h 6 c 2.753906 0 5 -2.246093 5 -5 c 0 -0.847656 -0.222656 -1.652343 -0.597656 -2.355469 c -0.019532 -0.046874 -0.039063 -0.089843 -0.0625 -0.132812 l -0.023438 -0.039062 l -0.003906 -0.007813 l -4.285156 -7.421875 l -3.054688 5.355469 z m -0.011719 4.019531 l 1.109375 1.945313 h -1.019531 c -0.472656 0 -0.925781 0.082031 -1.347656 0.234375 z m 6.128906 0 l 1.242188 2.15625 c -0.402344 -0.136719 -0.832031 -0.210937 -1.28125 -0.210937 h -1.074219 z m -6.039062 2.945313 h 6 c 1.101562 0 2.042969 0.570312 2.5625 1.429687 l 0.027344 0.042969 l 0.003906 0.011719 c 0.019531 0.035156 0.035156 0.074219 0.058594 0.113281 c 0.039062 0.082031 0.082031 0.160156 0.117187 0.246094 c 0.144531 0.351562 0.222657 0.742187 0.222657 1.148437 c 0 1.679688 -1.316407 2.992188 -2.992188 2.992188 h -6 c -1.675781 0 -2.992188 -1.3125 -2.992188 -2.992188 c 0 -0.519531 0.125 -1.003906 0.351563 -1.425781 c 0.019531 -0.039062 0.042969 -0.078125 0.066406 -0.117188 c 0.515625 -0.875 1.464844 -1.449218 2.574219 -1.449218 z m -1 1.992187 c -0.277344 0 -0.5 0.226563 -0.5 0.5 c 0 0.582031 0.386719 1.082031 0.914062 1.328125 c 0.527344 0.246094 1.144532 0.246094 1.671876 0 c 0.527343 -0.246094 0.914062 -0.746094 0.914062 -1.328125 c 0 -0.273437 -0.222656 -0.5 -0.5 -0.5 s -0.5 0.226563 -0.5 0.5 c 0 0.140625 -0.089844 0.304688 -0.335938 0.417969 c -0.246093 0.117188 -0.582031 0.117188 -0.828124 0 c -0.246094 -0.113281 -0.335938 -0.277344 -0.335938 -0.417969 c 0 -0.273437 -0.222656 -0.5 -0.5 -0.5 z m 5.492188 0 c -0.277344 0 -0.5 0.226563 -0.5 0.5 c 0 0.582031 0.386718 1.082031 0.914062 1.328125 s 1.140625 0.246094 1.671875 0 c 0.527344 -0.246094 0.910156 -0.746094 0.910156 -1.328125 c 0 -0.273437 -0.222656 -0.5 -0.5 -0.5 c -0.273437 0 -0.5 0.226563 -0.5 0.5 c 0 0.140625 -0.085937 0.304688 -0.332031 0.417969 c -0.246094 0.117188 -0.582031 0.117188 -0.828125 0 c -0.246094 -0.113281 -0.335937 -0.277344 -0.335937 -0.417969 c 0 -0.273437 -0.222657 -0.5 -0.5 -0.5 z m 0 0" fill="#222222" fill-rule="evenodd"/></svg>
