<?xml version="1.0" encoding="UTF-8"?>
<svg xmlns="http://www.w3.org/2000/svg" height="16px" viewBox="0 0 16 16" width="16px"><path d="m 9.992188 -0.046875 v 4.011719 l 0.035156 -0.03125 c -0.011719 0.082031 -0.015625 0.164062 -0.015625 0.246094 v 1.640624 c 0 1.128907 0.847656 2.050782 1.945312 2.167969 c -0.03125 1.121094 -0.945312 2.011719 -2.066406 2.011719 h -2.347656 c -1.746094 0 -3.234375 1.273438 -3.503907 3 h -1.0625 c -0.550781 0 -0.976562 -0.425781 -0.976562 -0.980469 v -0.160156 c 0 -1.039063 0.425781 -2.035156 1.175781 -2.753906 l 1.808594 -1.726563 c 0.667969 -0.640625 1.046875 -1.527344 1.046875 -2.453125 v -0.257812 c 0 -1.472657 -1.195312 -2.667969 -2.667969 -2.667969 h -1.46875 c -0.550781 0 -1 0.449219 -1 1 s 0.449219 1 1 1 h 1.46875 c 0.378907 0 0.667969 0.289062 0.667969 0.667969 v 0.257812 c 0 0.382813 -0.15625 0.746094 -0.429688 1.007813 l -1.804687 1.726562 c -1.148437 1.097656 -1.796875 2.617188 -1.796875 4.199219 v 0.160156 c 0 1.648438 1.332031 2.980469 2.976562 2.980469 h 2.902344 c 0.050782 0 0.101563 -0.003906 0.152344 -0.011719 h 7.570312 c 1.316407 0 2.386719 -1.070312 2.386719 -2.386719 v -6.652343 c 0.003907 -0.042969 0.003907 -0.085938 0.003907 -0.128907 v -1.640624 c 0 -0.074219 -0.003907 -0.152344 -0.011719 -0.226563 l 0.011719 0.011719 v -4.011719 l -1.964844 2.015625 l 0.046875 0.046875 c -0.085938 -0.011719 -0.171875 -0.015625 -0.261719 -0.015625 h -1.625 c -0.035156 0 -0.070312 0 -0.105469 0 l 0.03125 -0.03125 z m 0 0" fill="#222222"/></svg>
