<?xml version="1.0" encoding="UTF-8"?>
<svg xmlns="http://www.w3.org/2000/svg" height="16px" viewBox="0 0 16 16" width="16px"><g fill="#222222"><path d="m 6.988281 5.996094 c 0 0.550781 -0.449219 1 -1 1 c -0.554687 0 -1 -0.449219 -1 -1 c 0 -0.554688 0.445313 -1 1 -1 c 0.550781 0 1 0.445312 1 1 z m 0 0"/><path d="m 4.03125 1 c -1.675781 0 -3.03125 1.355469 -3.03125 3.03125 v 7.9375 c 0 1.675781 1.355469 3.03125 3.03125 3.03125 h 7.9375 c 1.675781 0 3.03125 -1.355469 3.03125 -3.03125 v -7.9375 c 0 -1.675781 -1.355469 -3.03125 -3.03125 -3.03125 z m 0 2 h 7.9375 c 0.589844 0 1.03125 0.441406 1.03125 1.03125 v 6.8125 l -2.425781 -2.445312 c -0.558594 -0.5625 -1.460938 -0.574219 -2.035157 -0.023438 l -1.582031 1.519531 l -0.460937 -0.472656 c -0.558594 -0.574219 -1.480469 -0.589844 -2.054688 -0.03125 l -1.441406 1.398437 v -6.757812 c 0 -0.589844 0.441406 -1.03125 1.03125 -1.03125 z m 5.519531 5.96875 c 0.113281 0 0.226563 0.046875 0.316407 0.136719 l 3.101562 3.125 c -0.109375 0.453125 -0.503906 0.769531 -1 0.769531 h -1.996094 l -2.320312 -2.386719 l 1.578125 -1.519531 c 0.09375 -0.085938 0.207031 -0.128906 0.320312 -0.125 z m -4.089843 1.007812 c 0.113281 0 0.226562 0.050782 0.316406 0.140626 l 2.796875 2.882812 h -4.542969 c -0.519531 0 -0.925781 -0.34375 -1.011719 -0.832031 l 2.117188 -2.0625 c 0.09375 -0.085938 0.210937 -0.128907 0.324219 -0.128907 z m 0 0"/></g></svg>
