<?xml version="1.0" encoding="UTF-8"?>
<svg xmlns="http://www.w3.org/2000/svg" height="16px" viewBox="0 0 16 16" width="16px"><path d="m 8 0 c -4.414062 0 -8 3.585938 -8 8 v 3 c 0 0.550781 0.449219 1 1 1 s 1 -0.449219 1 -1 v -3 c 0 -3.324219 2.675781 -6 6 -6 h 6 v 6 c 0 3.324219 -2.675781 6 -6 6 h -5.726562 l 3.152343 -3.003906 h 0.003907 c 0.023437 0.003906 0.046874 0.003906 0.070312 0.003906 h 4 c 0.277344 0 0.5 -0.222656 0.5 -0.5 s -0.222656 -0.5 -0.5 -0.5 h -3.027344 l 1.144532 -1.089844 c 0.171874 -0.042968 0.3125 -0.175781 0.359374 -0.34375 l 3.367188 -3.207031 c 0.183594 -0.191406 0.183594 -0.496094 0 -0.6875 s -0.488281 -0.207031 -0.6875 -0.03125 l -2.65625 2.527344 v -1.667969 c 0 -0.277344 -0.222656 -0.5 -0.5 -0.5 s -0.5 0.222656 -0.5 0.5 v 2.617188 l -6.195312 5.902343 c -0.449219 0.089844 -0.7812505 0.472657 -0.804688 0.929688 v 0.101562 c 0.0273438 0.53125 0.46875 0.949219 1 0.949219 h 7 c 4.414062 0 8 -3.585938 8 -8 v -7 c 0 -0.550781 -0.449219 -1 -1 -1 z m 0 0" fill="#222222"/></svg>
