<?xml version="1.0" encoding="UTF-8"?>
<svg xmlns="http://www.w3.org/2000/svg" height="16px" viewBox="0 0 16 16" width="16px"><path d="m 8 -0.0117188 c -0.488281 0 -0.902344 0.3515628 -0.988281 0.8320308 c -0.296875 0.441407 -0.890625 0.742188 -1.761719 0.933594 c -1.007812 0.21875 -2.253906 0.234375 -3.25 0.234375 c -0.550781 0 -1 0.449219 -1 1 s 0.449219 1 1 1 c 1.003906 0 2.367188 0.003907 3.675781 -0.28125 c 0.460938 -0.101562 0.90625 -0.277343 1.324219 -0.507812 v 10.789062 h -3 c -0.550781 0 -1 0.449219 -1 1 s 0.449219 1 1 1 h 8 c 0.550781 0 1 -0.449219 1 -1 s -0.449219 -1 -1 -1 h -3 v -10.851562 c 0.445312 0.269531 0.921875 0.46875 1.414062 0.578125 c 1.273438 0.285156 2.585938 0.273437 3.585938 0.273437 c 0.550781 0 1 -0.449219 1 -1 s -0.449219 -1 -1 -1 c -1 0 -2.1875 -0.007812 -3.152344 -0.222656 c -0.960937 -0.21875 -1.589844 -0.574219 -1.890625 -1.203125 c -0.167969 -0.359375 -0.527343 -0.5820312 -0.921875 -0.5742188 c -0.003906 0 -0.011718 0 -0.015625 0.0039063 c -0.007812 -0.0039063 -0.011719 -0.0039063 -0.019531 -0.0039063 z m -5 3.9999998 c -0.222656 0 -0.417969 0.148438 -0.480469 0.363281 l -1.761719 6.167969 c -0.285156 0.070313 -0.527343 0.265625 -0.65625 0.53125 c -0.117187 0.238281 -0.132812 0.511719 -0.0468745 0.765625 c 0.0859375 0.25 0.2695315 0.457032 0.5078125 0.574219 c 1.503906 0.730469 3.253906 0.824219 4.890625 -0.011719 c 0.492187 -0.25 0.6875 -0.851562 0.4375 -1.34375 c -0.132813 -0.257812 -0.367187 -0.445312 -0.648437 -0.515625 l -1.761719 -6.167969 c -0.0625 -0.214843 -0.257813 -0.363281 -0.480469 -0.363281 z m 10 0 c -0.222656 0 -0.417969 0.148438 -0.480469 0.363281 l -1.761719 6.167969 c -0.285156 0.070313 -0.527343 0.265625 -0.65625 0.53125 c -0.117187 0.238281 -0.132812 0.511719 -0.046874 0.765625 c 0.085937 0.25 0.269531 0.457032 0.507812 0.574219 c 1.503906 0.730469 3.253906 0.824219 4.890625 -0.011719 c 0.492187 -0.25 0.6875 -0.851562 0.4375 -1.34375 c -0.132813 -0.257812 -0.367187 -0.445312 -0.648437 -0.515625 l -1.761719 -6.167969 c -0.0625 -0.214843 -0.257813 -0.363281 -0.480469 -0.363281 z m -10 2.320313 l 1.261719 4.421875 c -0.894531 0.382812 -1.664063 0.351562 -2.523438 -0.003907 z m 10 0 l 1.261719 4.421875 c -0.894531 0.382812 -1.664063 0.351562 -2.523438 -0.003907 z m 0 0"/></svg>
