<?xml version="1.0" encoding="UTF-8"?>
<svg xmlns="http://www.w3.org/2000/svg" height="16px" viewBox="0 0 16 16" width="16px"><path d="m 3 0 c -1.65625 0 -3 1.34375 -3 3 s 1.34375 3 3 3 c 0.769531 0 1.46875 -0.289062 2 -0.765625 v 2.359375 l -0.703125 0.722656 c -0.832031 0.855469 -1.296875 2 -1.296875 3.195313 v 0.066406 c 0.179688 2.59375 2.410156 4.5625 5 4.421875 h 7.972656 v -3 c 0 -2.195312 -1.78125 -3.984375 -3.972656 -4 v -0.355469 c 0 -2.179687 -1.382812 -4.113281 -3.441406 -4.820312 l -2.558594 -0.882813 c -0.03125 -1.628906 -1.363281 -2.941406 -3 -2.941406 z m 0 2 c 0.5625 0 1 0.4375 1 1 s -0.4375 1 -1 1 s -1 -0.4375 -1 -1 s 0.4375 -1 1 -1 z m 4 3.398438 l 0.90625 0.3125 c 1.257812 0.433593 2.09375 1.605468 2.09375 2.933593 v 2.355469 h 1.972656 c 1.117188 0 2 0.882812 2 2 v 1 h -3.054687 c -0.253907 -1.375 -1.566407 -1.96875 -2.941407 -1.96875 c -0.277343 0 -0.5 0.226562 -0.5 0.5 c 0 0.277344 0.222657 0.5 0.5 0.5 c 0.589844 0 1.113282 0.136719 1.453126 0.375 c 0.167968 0.117188 0.296874 0.257812 0.386718 0.429688 c 0.027344 0.050781 0.046875 0.105468 0.066406 0.164062 h -1.90625 c -0.015624 0 -0.035156 0 -0.050781 0 c -1.515625 0.101562 -2.804687 -1.015625 -2.925781 -2.523438 c 0.007812 -0.660156 0.269531 -1.292968 0.730469 -1.765624 l 1.269531 -1.304688 z m 1.5 1.601562 c -0.277344 0 -0.5 0.222656 -0.5 0.5 s 0.222656 0.5 0.5 0.5 s 0.5 -0.222656 0.5 -0.5 s -0.222656 -0.5 -0.5 -0.5 z m 0 0" fill="#222222"/></svg>
