<?xml version="1.0" encoding="UTF-8"?>
<svg xmlns="http://www.w3.org/2000/svg" height="16px" viewBox="0 0 16 16" width="16px"><path d="m 15 0 c -3.511719 0 -6.3125 1.433594 -6.890625 4.667969 c -1.183594 -1.828125 -3.4375 -2.667969 -6.109375 -2.667969 c -0.550781 0 -1 0.449219 -1 1 c 0 4.328125 2.613281 6.949219 6 6.710938 v 4.289062 h -4 c -0.550781 0 -1 0.449219 -1 1 s 0.449219 1 1 1 h 10 c 0.550781 0 1 -0.449219 1 -1 s -0.449219 -1 -1 -1 h -4 v -6 c 4.910156 0 7 -2.210938 7 -7 c 0 -0.550781 -0.449219 -1 -1 -1 z m -1.042969 2.054688 c -0.113281 1.375 -0.476562 2.261718 -1.042969 2.832031 c -0.570312 0.582031 -1.476562 0.960937 -2.914062 1.078125 c 0 -0.753906 0.132812 -1.351563 0.351562 -1.828125 c 0.222657 -0.484375 0.53125 -0.855469 0.9375 -1.167969 c 0.636719 -0.476562 1.546876 -0.792969 2.667969 -0.914062 z m -10.890625 2.003906 c 1.109375 0.121094 2.007813 0.441406 2.640625 0.921875 c 0.40625 0.316406 0.714844 0.691406 0.9375 1.175781 c 0.191407 0.421875 0.316407 0.929688 0.347657 1.550781 c -1.039063 0.109375 -1.890626 -0.175781 -2.566407 -0.769531 c -0.667969 -0.589844 -1.183593 -1.542969 -1.359375 -2.878906 z m 0 0" fill="#222222"/></svg>
