<?xml version="1.0" encoding="UTF-8"?>
<svg xmlns="http://www.w3.org/2000/svg" height="16px" viewBox="0 0 16 16" width="16px"><path d="m 8 0 c -2 0 -2 2 -2 2 v 1 h 2 c 0.226562 0 0.4375 0.027344 0.640625 0.070312 c 0.113281 -0.046874 0.230469 -0.070312 0.359375 -0.070312 c 0.449219 0 0.828125 0.296875 0.957031 0.699219 v 0.003906 c 0.308594 0.257813 0.542969 0.558594 0.6875 0.847656 c 0.371094 0.742188 0.355469 1.449219 0.355469 1.449219 c 1.105469 0 2 0.894531 2 2 h -2 v 2 s 0.003906 0.867188 -0.261719 1.992188 c 0.085938 0.007812 0.171875 0.007812 0.261719 0.007812 c 5 0 5 -6 5 -6 v -4 s 0 -2 -2 -2 z m 5 3 c 0.550781 0 1 0.449219 1 1 s -0.449219 1 -1 1 s -1 -0.449219 -1 -1 s 0.449219 -1 1 -1 z m -11 1 c -2 0 -2 2 -2 2 v 4 s 0 6 5 6 s 5 -6 5 -6 v -4 s 0 -2 -2 -2 z m 1 3 c 0.550781 0 1 0.449219 1 1 s -0.449219 1 -1 1 s -1 -0.449219 -1 -1 s 0.449219 -1 1 -1 z m 4 0 c 0.550781 0 1 0.449219 1 1 s -0.449219 1 -1 1 s -1 -0.449219 -1 -1 s 0.449219 -1 1 -1 z m -4 4 h 4 c 0 1.105469 -0.894531 2 -2 2 s -2 -0.894531 -2 -2 z m 0 0" fill="#222222"/></svg>
