<?xml version="1.0" encoding="UTF-8" standalone="no"?>
<svg
   height="16px"
   viewBox="0 0 16 16"
   width="16px"
   version="1.1"
   id="svg49"
   sodipodi:docname="bold-text-symbolic.svg"
   inkscape:version="1.2.2 (b0a8486541, 2022-12-01)"
   xmlns:inkscape="http://www.inkscape.org/namespaces/inkscape"
   xmlns:sodipodi="http://sodipodi.sourceforge.net/DTD/sodipodi-0.dtd"
   xmlns="http://www.w3.org/2000/svg"
   xmlns:svg="http://www.w3.org/2000/svg">
  <defs
     id="defs53" />
  <sodipodi:namedview
     id="namedview51"
     pagecolor="#ffffff"
     bordercolor="#000000"
     borderopacity="0.25"
     inkscape:showpageshadow="2"
     inkscape:pageopacity="0.0"
     inkscape:pagecheckerboard="0"
     inkscape:deskcolor="#d1d1d1"
     showgrid="false"
     inkscape:zoom="26.437788"
     inkscape:cx="9.3237756"
     inkscape:cy="10.288304"
     inkscape:window-width="1440"
     inkscape:window-height="831"
     inkscape:window-x="0"
     inkscape:window-y="0"
     inkscape:window-maximized="1"
     inkscape:current-layer="text6782" />
  <filter
     id="a"
     height="1"
     width="1"
     x="0"
     y="0">
    <feColorMatrix
       color-interpolation-filters="sRGB"
       values="0 0 0 0 1 0 0 0 0 1 0 0 0 0 1 0 0 0 1 0"
       id="feColorMatrix2" />
  </filter>
  <mask
     id="b">
    <g
       filter="url(#a)"
       id="g7">
      <path
         d="m -1.6 -1.6 h 19.2 v 19.2 h -19.2 z"
         fill-opacity="0.5"
         id="path5" />
    </g>
  </mask>
  <clipPath
     id="c">
    <path
       d="m 0 0 h 1600 v 1200 h -1600 z"
       id="path10" />
  </clipPath>
  <mask
     id="d">
    <g
       filter="url(#a)"
       id="g15">
      <path
         d="m -1.6 -1.6 h 19.2 v 19.2 h -19.2 z"
         fill-opacity="0.7"
         id="path13" />
    </g>
  </mask>
  <clipPath
     id="e">
    <path
       d="m 0 0 h 1600 v 1200 h -1600 z"
       id="path18" />
  </clipPath>
  <mask
     id="f">
    <g
       filter="url(#a)"
       id="g23">
      <path
         d="m -1.6 -1.6 h 19.2 v 19.2 h -19.2 z"
         fill-opacity="0.35"
         id="path21" />
    </g>
  </mask>
  <clipPath
     id="g">
    <path
       d="m 0 0 h 1600 v 1200 h -1600 z"
       id="path26" />
  </clipPath>
  <g
     id="surface1"
     transform="matrix(1.5226824,0,0,1.3334064,-14.064074,0.47642738)"
     style="display:none">
    <g
       style="fill:#000000;fill-opacity:1"
       id="g474">
      <g
         id="use472"
         transform="translate(0.99599999,9.309)">
        <path
           style="stroke:none;stroke-width:1.24669"
           d="M 12.016539,0.45814423 H 9.553852 L 9.2254841,-0.66679413 H 8.897116 l 3e-7,2.24987633 H 12.67342 c -0.0024,1.434e-4 -1.45e-4,-2.24987633 -1.45e-4,-2.24987633 -1.469592,-0.87998047 -2.085323,-1.59523907 -2.134319,-4.12477397 -0.04451,-2.2980133 1.474873,-3.7497945 2.955311,-3.7497945 1.480438,0 2.955311,1.4512191 2.955311,3.7497945 0,2.2117013 -0.573853,3.1748445 -2.134392,4.12477396 V 1.5830826 l 3.776231,-4e-7 v -2.24987633 h -0.328368 l -0.328368,1.12493836 -2.462759,-10e-9 v -0.74995891 c 1.609053,-0.67304014 3.125173,-2.16973301 3.119494,-4.49975341 0,-2.0648219 -2.103781,-4.124774 -4.59715,-4.124774 -2.493369,0 -4.5971507,2.0794316 -4.5971507,4.124774 -0.012009,2.743236 1.8619357,3.94543024 3.1194227,4.49975343"
           id="path658"
           sodipodi:nodetypes="cccccccssccccccccccscc" />
      </g>
    </g>
  </g>
  <g
     id="surface1-6"
     transform="matrix(1.3333333,0,0,1.3333333,-1.1821666,-0.53699996)"
     style="display:inline">
    <g
       style="fill:#000000;fill-opacity:1"
       id="g274"
       transform="matrix(1.4702514,0,0,1.2866427,-0.76962521,-0.3304274)">
      <g
         id="use272"
         transform="translate(0.99599999,9.309)">
        <g
           aria-label="B"
           transform="scale(0.9171858,1.0902916)"
           id="text6782"
           style="font-weight:bold;font-size:10.9054px;font-family:LMRoman12;-inkscape-font-specification:LMRoman12-Bold;stroke-width:0.439962">
          <path
             d="m 8.4849253,-2.0281199 c 0,-1.0469184 -1.2161542,-1.7775803 -2.5138969,-1.8757289 1.1777833,-0.2072026 2.1649241,-0.8615266 2.1649241,-1.7012424 0,-1.0032968 -1.2270596,-1.8757289 -2.9828291,-1.8757289 H 0.69846949 v 0.566206 H 1.7652139 v 6.34883826 H 0.69846949 V 2.8453139e-4 H 5.4802854 c 1.8102965,0 3.0046399,-0.95967522139 3.0046399,-2.02840443139 z M 6.3090958,-5.6050912 c 0,0.8397158 -0.5236616,1.4625803 -1.5814854,1.4625803 H 3.4713599 l 2.024e-4,-2.7721032 h 1.5397909 c 1.1014454,0 1.2977426,0.8078745 1.2977426,1.3095229 z m 0.2944458,3.5660659 c 0,0.1308648 0,1.47324946 -1.5703776,1.47324946 H 3.4715623 V -3.643158 H 5.142218 c 0.218108,0 0.7306618,-0.053488 1.1014454,0.415444 0.3598782,0.4580269 0.3598782,1.0687293 0.3598782,1.1886887 z"
             id="path7772"
             sodipodi:nodetypes="scssccccccssssccssssccscs" />
        </g>
      </g>
    </g>
  </g>
</svg>
