<?xml version="1.0" encoding="UTF-8" standalone="no"?>
<svg
   height="16px"
   viewBox="0 0 16 16"
   width="16px"
   version="1.1"
   id="svg1"
   sodipodi:docname="font-settings-symbolic.svg"
   inkscape:version="1.4.3 (0d15f75042, 2025-12-25)"
   xmlns:inkscape="http://www.inkscape.org/namespaces/inkscape"
   xmlns:sodipodi="http://sodipodi.sourceforge.net/DTD/sodipodi-0.dtd"
   xmlns="http://www.w3.org/2000/svg"
   xmlns:svg="http://www.w3.org/2000/svg">
  <defs
     id="defs1" />
  <sodipodi:namedview
     id="namedview1"
     pagecolor="#ffffff"
     bordercolor="#000000"
     borderopacity="0.25"
     inkscape:showpageshadow="2"
     inkscape:pageopacity="0.0"
     inkscape:pagecheckerboard="0"
     inkscape:deskcolor="#d1d1d1"
     inkscape:zoom="40.3125"
     inkscape:cx="5.8046512"
     inkscape:cy="8.9178295"
     inkscape:window-width="1440"
     inkscape:window-height="831"
     inkscape:window-x="0"
     inkscape:window-y="0"
     inkscape:window-maximized="1"
     inkscape:current-layer="svg1" />
  <path
     d="m 10.015625,0 c -0.550781,0 -1,0.449219 -1,1 v 12.000187 c 0,0.550782 0.449219,1 1,1 h 3 c 1.636719,0 2.988281,-1.347656 2.988281,-2.984375 V 8.4730465 c 0,-1.636719 -1.351562,-2.984375 -2.988281,-2.984375 h -2 V 1 c 0,-0.550781 -0.449219,-1 -1,-1 z m -8,3.5003905 c -0.550781,0 -1,0.449219 -1,1 0,0.550781 0.449219,1 1,1 h 2 c 0.558594,0 0.992187,0.429687 1,0.988281 H 3.613281 C 1.6875,6.4457035 0.0703125,7.9964845 0.03125,9.9183595 v 0.019531 c 0,1.9570315 1.605469,4.0622965 3.558594,4.0622965 h 2.425781 c 0.550781,0 1,-0.449218 1,-1 V 6.5003905 c 0,-1.644531 -1.355469,-3 -3,-3 z m 9,3.988281 h 2 c 0.554687,0 0.988281,0.429688 0.988281,0.984375 v 2.5427655 c 0,0.554689 -0.433594,0.984375 -0.988281,0.984375 h -2 z m -7.445313,1 H 3.59375 5.015625 V 12.000187 H 3.589844 c -0.867188,0 -1.546875,-1.18339 -1.554688,-2.0505775 0.023438,-0.835938 0.695313,-1.480469 1.535156,-1.460938 z"
     fill="#2e3434"
     id="path1"
     sodipodi:nodetypes="sssssssscsssssscccssssssscssssccccccscc" />
</svg>
