<?xml version="1.0" encoding="UTF-8" standalone="no"?>
<svg
   height="16px"
   viewBox="0 0 16 16"
   width="16px"
   version="1.1"
   id="svg2"
   sodipodi:docname="insert-image-new-symbolic.svg"
   inkscape:version="1.4.2 (ebf0e940d0, 2025-05-08)"
   xmlns:inkscape="http://www.inkscape.org/namespaces/inkscape"
   xmlns:sodipodi="http://sodipodi.sourceforge.net/DTD/sodipodi-0.dtd"
   xmlns="http://www.w3.org/2000/svg"
   xmlns:svg="http://www.w3.org/2000/svg">
  <defs
     id="defs2" />
  <sodipodi:namedview
     id="namedview2"
     pagecolor="#ffffff"
     bordercolor="#000000"
     borderopacity="0.25"
     inkscape:showpageshadow="2"
     inkscape:pageopacity="0.0"
     inkscape:pagecheckerboard="0"
     inkscape:deskcolor="#d1d1d1"
     inkscape:zoom="17.084779"
     inkscape:cx="8.9846058"
     inkscape:cy="1.1998985"
     inkscape:window-width="1440"
     inkscape:window-height="831"
     inkscape:window-x="0"
     inkscape:window-y="0"
     inkscape:window-maximized="1"
     inkscape:current-layer="g2" />
  <g
     fill="#222222"
     id="g2"
     transform="translate(-1,-1)">
    <path
       d="M 4.03125,1.000375 C 2.355469,1.000375 1,2.355844 1,4.031625 v 9.936688 c 0,1.675781 1.355469,3.031249 3.03125,3.031249 h 9.93711 c 1.675781,0 3.031249,-1.355468 3.031249,-3.031249 V 4.031625 c 0,-1.675781 -1.355468,-3.03125 -3.031249,-3.03125 z m 0,2 h 9.93711 c 0.589843,0 1.03125,0.441406 1.03125,1.03125 v 7.940594 c -0.507812,-0.05469 -0.96875,-0.332031 -1.261719,-0.757812 L 12.710548,9.6909685 c -0.29297,-0.433594 -0.773438,-0.648437 -1.25,-0.644531 -0.476563,0.00391 -0.953126,0.226563 -1.238282,0.667969 L 9.2378905,11.222219 c -0.316406,0.484375 -0.855469,0.777344 -1.4375,0.777344 H 3 V 4.031625 C 3,3.441781 3.441406,3.000375 4.03125,3.000375 Z m 7.43711,7.026531 c 0.152343,-0.0039 0.308593,0.07422 0.414062,0.226562 l 1.03125,1.519532 c 0.476563,0.703124 1.246094,1.144531 2.085938,1.207031 v 0.988282 c 0,0.589843 -0.441407,1.03125 -1.03125,1.03125 H 4.03125 C 3.441406,14.999563 3,14.558156 3,13.968313 v -0.96875 h 4.8003905 c 0.917969,0 1.773438,-0.464844 2.2734375,-1.230469 l 0.984375,-1.507812 c 0.101563,-0.15625 0.257813,-0.234375 0.410157,-0.234376 z"
       id="path1"
       sodipodi:nodetypes="sssssssssssscccsccscssccccsssscsccc" />
    <path
       d="M 5.953406,4.887 C 5.094031,4.887 4.387,5.594031 4.387,6.453406 c 0,0.859375 0.707031,1.566406 1.566406,1.566406 0.859375,0 1.566406,-0.707031 1.566406,-1.566406 C 7.519812,5.594031 6.812781,4.887 5.953406,4.887 Z m 0,0.996093 c 0.320313,0 0.570313,0.25 0.570313,0.570313 0,0.320313 -0.25,0.570313 -0.570313,0.570313 -0.320313,0 -0.570313,-0.25 -0.570313,-0.570313 0,-0.320313 0.25,-0.570313 0.570313,-0.570313 z m 0,0"
       id="path2" />
  </g>
</svg>
