<?xml version="1.0" encoding="UTF-8" standalone="no"?>
<svg
   height="16px"
   viewBox="0 0 16 16"
   width="16px"
   version="1.1"
   id="svg4"
   sodipodi:docname="library-symbolic.svg"
   inkscape:version="1.4.2 (ebf0e940d0, 2025-05-08)"
   xmlns:inkscape="http://www.inkscape.org/namespaces/inkscape"
   xmlns:sodipodi="http://sodipodi.sourceforge.net/DTD/sodipodi-0.dtd"
   xmlns="http://www.w3.org/2000/svg"
   xmlns:svg="http://www.w3.org/2000/svg">
  <defs
     id="defs4" />
  <sodipodi:namedview
     id="namedview4"
     pagecolor="#ffffff"
     bordercolor="#000000"
     borderopacity="0.25"
     inkscape:showpageshadow="2"
     inkscape:pageopacity="0.0"
     inkscape:pagecheckerboard="0"
     inkscape:deskcolor="#d1d1d1"
     inkscape:zoom="40.3125"
     inkscape:cx="5.420155"
     inkscape:cy="7.6031008"
     inkscape:window-width="1440"
     inkscape:window-height="831"
     inkscape:window-x="0"
     inkscape:window-y="0"
     inkscape:window-maximized="1"
     inkscape:current-layer="g4" />
  <g
     fill="#222222"
     id="g4">
    <path
       d="m 1.5,1.0003905 h 2 c 0.277344,0 0.5,0.222656 0.5,0.5 V 14.5 C 4,14.777344 3.777344,15 3.5,15 h -2 C 1.222656,15 1,14.777344 1,14.5 V 1.5003905 c 0,-0.277344 0.222656,-0.5 0.5,-0.5 z"
       id="path1"
       sodipodi:nodetypes="sssssssss" />
    <path
       d="m 5.5,3.0003905 h 1 c 0.277344,0 0.5,0.222656 0.5,0.5 V 14.5 C 7,14.777344 6.777344,15 6.5,15 h -1 C 5.222656,15 5,14.777344 5,14.5 V 3.5003905 c 0,-0.277344 0.222656,-0.5 0.5,-0.5 z"
       id="path2"
       sodipodi:nodetypes="sssssssss" />
    <path
       d="m 8.5,2.0003905 h 1 c 0.277344,0 0.5,0.222656 0.5,0.5 V 14.5 C 10,14.777344 9.777344,15 9.5,15 h -1 C 8.222656,15 8,14.777344 8,14.5 V 2.5003905 c 0,-0.277344 0.222656,-0.5 0.5,-0.5 z"
       id="path3"
       sodipodi:nodetypes="sssssssss" />
    <path
       d="m 10.707031,0.4613285 0.964844,-0.261719 c 0.265625,-0.070313 0.539063,0.089843 0.613281,0.355469 l 3.363282,13.5582025 c 0.07031,0.265625 -0.08594,0.539063 -0.355469,0.609375 l -0.964844,0.261719 c -0.265625,0.07031 -0.539063,-0.08984 -0.613281,-0.355469 L 10.351562,1.0746095 c -0.07031,-0.269531 0.08594,-0.542969 0.355469,-0.613281 z"
       id="path4"
       sodipodi:nodetypes="ccccccccc" />
  </g>
</svg>
