<?xml version="1.0" encoding="UTF-8" standalone="no"?>
<svg
   height="16px"
   viewBox="0 0 16 16"
   width="16px"
   version="1.1"
   id="svg51"
   sodipodi:docname="remove-selection-symbolic.svg"
   inkscape:version="1.2.2 (b0a8486541, 2022-12-01)"
   xmlns:inkscape="http://www.inkscape.org/namespaces/inkscape"
   xmlns:sodipodi="http://sodipodi.sourceforge.net/DTD/sodipodi-0.dtd"
   xmlns="http://www.w3.org/2000/svg"
   xmlns:svg="http://www.w3.org/2000/svg">
  <defs
     id="defs55" />
  <sodipodi:namedview
     id="namedview53"
     pagecolor="#ffffff"
     bordercolor="#000000"
     borderopacity="0.25"
     inkscape:showpageshadow="2"
     inkscape:pageopacity="0.0"
     inkscape:pagecheckerboard="0"
     inkscape:deskcolor="#d1d1d1"
     showgrid="false"
     inkscape:zoom="30.110604"
     inkscape:cx="9.2824441"
     inkscape:cy="7.7713485"
     inkscape:window-width="1440"
     inkscape:window-height="831"
     inkscape:window-x="0"
     inkscape:window-y="0"
     inkscape:window-maximized="1"
     inkscape:current-layer="svg51" />
  <filter
     id="a"
     height="1"
     width="1"
     x="0"
     y="0">
    <feColorMatrix
       color-interpolation-filters="sRGB"
       values="0 0 0 0 1 0 0 0 0 1 0 0 0 0 1 0 0 0 1 0"
       id="feColorMatrix2" />
  </filter>
  <mask
     id="b">
    <g
       filter="url(#a)"
       id="g7">
      <path
         d="m -1.6 -1.6 h 19.2 v 19.2 h -19.2 z"
         fill-opacity="0.5"
         id="path5" />
    </g>
  </mask>
  <clipPath
     id="c">
    <path
       d="m 0 0 h 1600 v 1200 h -1600 z"
       id="path10" />
  </clipPath>
  <mask
     id="d">
    <g
       filter="url(#a)"
       id="g15">
      <path
         d="m -1.6 -1.6 h 19.2 v 19.2 h -19.2 z"
         fill-opacity="0.7"
         id="path13" />
    </g>
  </mask>
  <clipPath
     id="e">
    <path
       d="m 0 0 h 1600 v 1200 h -1600 z"
       id="path18" />
  </clipPath>
  <mask
     id="f">
    <g
       filter="url(#a)"
       id="g23">
      <path
         d="m -1.6 -1.6 h 19.2 v 19.2 h -19.2 z"
         fill-opacity="0.35"
         id="path21" />
    </g>
  </mask>
  <clipPath
     id="g">
    <path
       d="m 0 0 h 1600 v 1200 h -1600 z"
       id="path26" />
  </clipPath>
  <path
     d="M 0,0 V 1 H 1 V 0 Z M 1,0 V 1 H 2 V 0 Z M 0,1 V 2 H 1 V 1 Z"
     fill="#222222"
     id="path31"
     sodipodi:nodetypes="ccccccccccccccc" />
  <path
     d="m 16,0 h -1 v 1 h 1 z m 0,1 h -1 v 1 h 1 z M 15,0 h -1 v 1 h 1 z"
     fill="#222222"
     id="path31-2"
     sodipodi:nodetypes="ccccccccccccccc" />
  <path
     d="m 16,16 v -1 h -1 v 1 z m -1,0 v -1 h -1 v 1 z m 1,-1 v -1 h -1 v 1 z"
     fill="#222222"
     id="path31-9"
     sodipodi:nodetypes="ccccccccccccccc" />
  <path
     d="M 0,16 H 1 V 15 H 0 Z M 0,15 H 1 V 14 H 0 Z m 1,1 H 2 V 15 H 1 Z"
     fill="#222222"
     id="path31-2-1"
     sodipodi:nodetypes="ccccccccccccccc" />
  <g
     mask="url(#b)"
     id="g37">
    <g
       clip-path="url(#c)"
       transform="matrix(1 0 0 1 -700 -704)"
       id="g35">
      <path
         d="m 550 182 c -0.351562 0.003906 -0.695312 0.101562 -1 0.28125 v 3.4375 c 0.304688 0.179688 0.648438 0.277344 1 0.28125 c 1.105469 0 2 -0.894531 2 -2 s -0.894531 -2 -2 -2 z m 0 5 c -0.339844 0 -0.679688 0.058594 -1 0.175781 v 6.824219 h 4 v -4 c 0 -1.65625 -1.34375 -3 -3 -3 z m 0 0"
         id="path33" />
    </g>
  </g>
  <g
     mask="url(#d)"
     id="g43">
    <g
       clip-path="url(#e)"
       transform="matrix(1 0 0 1 -700 -704)"
       id="g41">
      <path
         d="m 569 182 v 4 c 1.105469 0 2 -0.894531 2 -2 s -0.894531 -2 -2 -2 z m 0 5 v 7 h 3 v -4 c 0 -1.65625 -1.34375 -3 -3 -3 z m 0 0"
         id="path39" />
    </g>
  </g>
  <g
     mask="url(#f)"
     id="g49">
    <g
       clip-path="url(#g)"
       transform="matrix(1 0 0 1 -700 -704)"
       id="g47">
      <path
         d="m 573 182.269531 v 3.449219 c 0.613281 -0.355469 0.996094 -1.007812 1 -1.71875 c 0 -0.714844 -0.382812 -1.375 -1 -1.730469 z m 0 4.90625 v 6.824219 h 2 v -4 c 0 -1.269531 -0.800781 -2.402344 -2 -2.824219 z m 0 0"
         id="path45" />
    </g>
  </g>
  <filter
     id="a-3"
     height="1"
     width="1"
     x="0"
     y="0">
    <feColorMatrix
       color-interpolation-filters="sRGB"
       values="0 0 0 0 1 0 0 0 0 1 0 0 0 0 1 0 0 0 1 0"
       id="feColorMatrix629" />
  </filter>
  <mask
     id="b-6">
    <g
       filter="url(#a)"
       id="g634"
       style="filter:url(#a-3)">
      <path
         d="m -1.6 -1.6 h 19.2 v 19.2 h -19.2 z"
         fill-opacity="0.5"
         id="path632" />
    </g>
  </mask>
  <clipPath
     id="c-7">
    <path
       d="m 0 0 h 1600 v 1200 h -1600 z"
       id="path637" />
  </clipPath>
  <mask
     id="d-5">
    <g
       filter="url(#a)"
       id="g642"
       style="filter:url(#a-3)">
      <path
         d="m -1.6 -1.6 h 19.2 v 19.2 h -19.2 z"
         fill-opacity="0.7"
         id="path640" />
    </g>
  </mask>
  <clipPath
     id="e-3">
    <path
       d="m 0 0 h 1600 v 1200 h -1600 z"
       id="path645" />
  </clipPath>
  <mask
     id="f-5">
    <g
       filter="url(#a)"
       id="g650"
       style="filter:url(#a-3)">
      <path
         d="m -1.6 -1.6 h 19.2 v 19.2 h -19.2 z"
         fill-opacity="0.35"
         id="path648" />
    </g>
  </mask>
  <clipPath
     id="g-6">
    <path
       d="m 0 0 h 1600 v 1200 h -1600 z"
       id="path653" />
  </clipPath>
  <path
     d="m 4.0035158,4 h 1 0.03125 c 0.253906,0.011719 0.511719,0.128906 0.6875,0.3125 L 8.0035158,6.59375 10.316016,4.3125 C 10.581641,4.082031 10.761328,4.007812 11.003516,4 h 1 v 1 c 0,0.285156 -0.03516,0.550781 -0.25,0.75 l -2.28125,2.28125 2.25,2.25 c 0.1875,0.1875 0.28125,0.453125 0.28125,0.71875 v 1 h -1 c -0.265625,0 -0.53125,-0.09375 -0.71875,-0.28125 L 8.0035158,9.4375 5.7222658,11.71875 C 5.5347658,11.90625 5.2691408,12 5.0035158,12 h -1 v -1 c 0,-0.265625 0.09375,-0.53125 0.28125,-0.71875 l 2.28125,-2.25 L 4.2847658,5.75 C 4.0738278,5.554688 3.9800778,5.28125 4.0035158,5 Z m 0,0"
     fill="#222222"
     id="path656" />
  <g
     mask="url(#b-6)"
     id="g662"
     transform="translate(-1.2646043,-0.13381884)">
    <g
       clip-path="url(#c-7)"
       transform="translate(-760,-824)"
       id="g660">
      <path
         d="m 550,182 c -0.35156,0.004 -0.69531,0.10156 -1,0.28125 v 3.4375 c 0.30469,0.17969 0.64844,0.27734 1,0.28125 1.10547,0 2,-0.89453 2,-2 0,-1.10547 -0.89453,-2 -2,-2 z m 0,5 c -0.33984,0 -0.67969,0.0586 -1,0.17578 V 194 h 4 v -4 c 0,-1.65625 -1.34375,-3 -3,-3 z m 0,0"
         id="path658" />
    </g>
  </g>
  <g
     mask="url(#d-5)"
     id="g668"
     transform="translate(-1.2646043,-0.13381884)">
    <g
       clip-path="url(#e-3)"
       transform="translate(-760,-824)"
       id="g666">
      <path
         d="m 569,182 v 4 c 1.10547,0 2,-0.89453 2,-2 0,-1.10547 -0.89453,-2 -2,-2 z m 0,5 v 7 h 3 v -4 c 0,-1.65625 -1.34375,-3 -3,-3 z m 0,0"
         id="path664" />
    </g>
  </g>
  <g
     mask="url(#f-5)"
     id="g674"
     transform="translate(-1.2646043,-0.13381884)">
    <g
       clip-path="url(#g-6)"
       transform="translate(-760,-824)"
       id="g672">
      <path
         d="m 573,182.26953 v 3.44922 c 0.61328,-0.35547 0.99609,-1.00781 1,-1.71875 0,-0.71484 -0.38281,-1.375 -1,-1.73047 z m 0,4.90625 V 194 h 2 v -4 c 0,-1.26953 -0.80078,-2.40234 -2,-2.82422 z m 0,0"
         id="path670" />
    </g>
  </g>
  <path
     d="M 0,5 V 7 H 0.99999998 V 5 Z M 0,4 V 5 H 0.99999998 V 4 Z"
     style="fill:#222222"
     id="path1159" />
  <path
     d="m 0,10 v 2 H 0.99999999 V 10 Z M 0,9 v 1 H 0.99999999 V 9 Z"
     style="fill:#222222"
     id="path1159-2" />
  <path
     d="m 15,5 v 1.9999999 h 1 V 5 Z m 0,-1 v 1 h 1 V 4 Z"
     style="fill:#222222"
     id="path1159-7" />
  <path
     d="M 15,9.9999999 V 12 h 1 V 9.9999999 Z m 0,-1 v 1 h 1 v -1 z"
     style="fill:#222222"
     id="path1159-2-0" />
  <path
     d="m 5.0000003,16 h 2 v -1 h -2 z M 4,16 H 5.0000003 V 15 H 4 Z"
     style="fill:#222222"
     id="path1159-9" />
  <path
     d="m 10.000002,16 h 2 v -1 h -2 z M 9.0000003,16 H 10.000002 V 15 H 9.0000003 Z"
     style="fill:#222222"
     id="path1159-2-3" />
  <path
     d="m 5.0000003,1 h 2 V 0 h -2 z M 4,1 H 5.0000003 V 0 H 4 Z"
     style="fill:#222222"
     id="path1159-7-6" />
  <path
     d="m 10.000002,1 h 2 V 0 h -2 z M 9.0000003,1 H 10.000002 V 0 H 9.0000003 Z"
     style="fill:#222222"
     id="path1159-2-0-0" />
</svg>
