<?xml version="1.0" encoding="UTF-8" standalone="no"?>
<svg
   height="16px"
   viewBox="0 0 16 16"
   width="16px"
   version="1.1"
   id="svg2"
   sodipodi:docname="verbatim-text-symbolic.svg"
   inkscape:version="1.4.2 (ebf0e940d0, 2025-05-08)"
   xmlns:inkscape="http://www.inkscape.org/namespaces/inkscape"
   xmlns:sodipodi="http://sodipodi.sourceforge.net/DTD/sodipodi-0.dtd"
   xmlns="http://www.w3.org/2000/svg"
   xmlns:svg="http://www.w3.org/2000/svg">
  <defs
     id="defs2">
    <inkscape:path-effect
       effect="powerclip"
       message=""
       id="path-effect9"
       is_visible="true"
       lpeversion="1"
       inverse="true"
       flatten="false"
       hide_clip="false" />
    <inkscape:path-effect
       effect="powerclip"
       message=""
       id="path-effect8"
       is_visible="true"
       lpeversion="1"
       inverse="true"
       flatten="false"
       hide_clip="false" />
    <inkscape:path-effect
       effect="powerclip"
       message=""
       id="path-effect5"
       is_visible="true"
       lpeversion="1"
       inverse="true"
       flatten="false"
       hide_clip="false" />
    <inkscape:path-effect
       effect="powerclip"
       message=""
       id="path-effect4"
       is_visible="true"
       lpeversion="1"
       inverse="true"
       flatten="false"
       hide_clip="false" />
    <inkscape:path-effect
       effect="powerclip"
       message=""
       id="path-effect7"
       is_visible="true"
       lpeversion="1"
       inverse="true"
       flatten="false"
       hide_clip="false" />
    <inkscape:path-effect
       effect="powerclip"
       message=""
       id="path-effect6"
       is_visible="true"
       lpeversion="1"
       inverse="true"
       flatten="false"
       hide_clip="false" />
    <inkscape:path-effect
       effect="powerclip"
       message=""
       id="path-effect3"
       is_visible="true"
       lpeversion="1"
       inverse="true"
       flatten="false"
       hide_clip="false" />
    <inkscape:path-effect
       effect="fillet_chamfer"
       id="path-effect2"
       is_visible="true"
       lpeversion="1"
       nodesatellites_param="F,0,1,1,0,3,0,1 @ F,0,1,1,0,3,0,1 @ F,0,0,1,0,0,0,1 @ F,0,0,1,0,0,0,1"
       radius="3"
       unit="px"
       method="auto"
       mode="F"
       chamfer_steps="1"
       flexible="false"
       use_knot_distance="true"
       apply_no_radius="true"
       apply_with_radius="true"
       only_selected="true"
       hide_knots="false" />
    <inkscape:path-effect
       effect="fillet_chamfer"
       id="path-effect1"
       is_visible="true"
       lpeversion="1"
       nodesatellites_param="F,0,0,1,0,0,0,1 @ F,0,0,1,0,0,0,1 @ F,0,0,1,0,0,0,1 @ F,0,0,1,0,0,0,1"
       radius="0"
       unit="px"
       method="auto"
       mode="F"
       chamfer_steps="1"
       flexible="false"
       use_knot_distance="true"
       apply_no_radius="true"
       apply_with_radius="true"
       only_selected="false"
       hide_knots="false" />
    <inkscape:path-effect
       effect="fillet_chamfer"
       id="path-effect2-7"
       is_visible="true"
       lpeversion="1"
       nodesatellites_param="F,0,1,1,0,3,0,1 @ F,0,1,1,0,3,0,1 @ F,0,0,1,0,0,0,1 @ F,0,0,1,0,0,0,1"
       radius="3"
       unit="px"
       method="auto"
       mode="F"
       chamfer_steps="1"
       flexible="false"
       use_knot_distance="true"
       apply_no_radius="true"
       apply_with_radius="true"
       only_selected="true"
       hide_knots="false" />
    <clipPath
       clipPathUnits="userSpaceOnUse"
       id="clipPath5">
      <path
         d="M 4.292969,12.207031 0.79296876,8.7070308 c -0.390625,-0.390625 -0.39062503,-1.0234371 0,-1.4140621 L 4.292969,3.792969 c 0.390625,-0.3906249 1.023437,-0.390625 1.414062,0 C 6.097656,4.183594 5.5972247,4.816406 5.2065997,5.2070309 L 2.4136304,7.9999997 5.2065997,10.792969 c 0.390625,0.390625 0.8910563,1.023437 0.5004313,1.414062 -0.390625,0.390625 -1.023437,0.390625 -1.414062,0 z"
         fill="#222222"
         fill-rule="evenodd"
         id="path5"
         style="display:none;stroke-width:0;stroke-dasharray:none"
         sodipodi:nodetypes="sssssscsss" />
      <path
         id="lpe_path-effect8"
         style="display:block;stroke-width:0;stroke-dasharray:none"
         class="powerclip"
         d="M -5,-5 H 14.2 V 21 H -5 Z m 9.292969,17.207031 c 0.390625,0.390625 1.023437,0.390625 1.414062,0 C 6.097656,11.816406 5.5972247,11.183594 5.2065997,10.792969 L 2.4136304,7.9999997 5.2065997,5.2070309 C 5.5972247,4.816406 6.097656,4.183594 5.707031,3.792969 5.316406,3.402344 4.683594,3.4023441 4.292969,3.792969 L 0.79296876,7.2929687 c -0.39062503,0.390625 -0.390625,1.0234371 0,1.4140621 z" />
    </clipPath>
    <clipPath
       clipPathUnits="userSpaceOnUse"
       id="clipPath8">
      <path
         d="M 4.293169,3.792969 0.793245,7.2929692 c -0.39063,0.3906383 -0.39063,1.0234238 0,1.4140621 l 3.499924,3.4999997 c 0.390629,0.390638 1.023484,0.390625 1.414127,0 C 6.0979386,11.816406 5.598067,11.183594 5.207425,10.792969 L 2.414565,8.0000003 5.207425,5.207031 C 5.598067,4.816406 6.0979386,4.183594 5.707296,3.792969 c -0.390643,-0.390625 -1.023498,-0.390638 -1.414127,0 z"
         fill="#222222"
         fill-rule="evenodd"
         id="path8"
         sodipodi:nodetypes="ssssscccss"
         style="display:none;stroke-width:1.00002" />
      <path
         id="lpe_path-effect9"
         style="display:block;stroke-width:1.00002"
         class="powerclip"
         d="M -5,-5 H 14.2 V 21 H -5 Z M 4.293169,3.792969 0.793245,7.2929692 c -0.39063,0.3906383 -0.39063,1.0234238 0,1.4140621 l 3.499924,3.4999997 c 0.390629,0.390638 1.023484,0.390625 1.414127,0 C 6.0979386,11.816406 5.598067,11.183594 5.207425,10.792969 L 2.414565,8.0000003 5.207425,5.207031 C 5.598067,4.816406 6.0979386,4.183594 5.707296,3.792969 c -0.390643,-0.390625 -1.023498,-0.390638 -1.414127,0 z" />
    </clipPath>
  </defs>
  <sodipodi:namedview
     id="namedview2"
     pagecolor="#ffffff"
     bordercolor="#000000"
     borderopacity="0.25"
     inkscape:showpageshadow="2"
     inkscape:pageopacity="0.0"
     inkscape:pagecheckerboard="0"
     inkscape:deskcolor="#d1d1d1"
     inkscape:zoom="31.918291"
     inkscape:cx="3.1643299"
     inkscape:cy="8.4434346"
     inkscape:window-width="1440"
     inkscape:window-height="831"
     inkscape:window-x="0"
     inkscape:window-y="0"
     inkscape:window-maximized="1"
     inkscape:current-layer="g2"
     showgrid="false" />
  <g
     fill="#222222"
     id="g2">
    <path
       style="fill:#000000;fill-opacity:1;stroke:#000000;stroke-width:0;stroke-dasharray:none"
       d="m 0,3 v 10 a 3,3 45 0 0 3,3 H 5.2 L 9.2,0 H 3 A 3,3 135 0 0 0,3 Z"
       id="path1"
       sodipodi:nodetypes="ccccc"
       inkscape:path-effect="#path-effect2;#path-effect8"
       inkscape:original-d="M 0,0 V 16 H 5.2 L 9.2,0 Z"
       clip-path="url(#clipPath5)" />
    <path
       style="fill:#000000;fill-opacity:1;stroke:#000000;stroke-width:0;stroke-dasharray:none"
       d="m 0,3 v 10 a 3,3 45 0 0 3,3 H 5.2 L 9.2,0 H 3 A 3,3 135 0 0 0,3 Z"
       id="path1-3"
       sodipodi:nodetypes="ccccc"
       inkscape:path-effect="#path-effect2-7;#path-effect9"
       inkscape:original-d="M 0,0 V 16 H 5.2 L 9.2,0 Z"
       transform="rotate(180,8,8)"
       clip-path="url(#clipPath8)" />
  </g>
</svg>
