<?xml version="1.0" encoding="UTF-8" standalone="no"?>
<svg
   height="16px"
   viewBox="0 0 16 16"
   width="16px"
   version="1.1"
   id="svg6"
   sodipodi:docname="welcome-bg-symbolic.svg"
   inkscape:version="1.2.2 (b0a8486541, 2022-12-01)"
   xmlns:inkscape="http://www.inkscape.org/namespaces/inkscape"
   xmlns:sodipodi="http://sodipodi.sourceforge.net/DTD/sodipodi-0.dtd"
   xmlns="http://www.w3.org/2000/svg"
   xmlns:svg="http://www.w3.org/2000/svg">
  <defs
     id="defs10" />
  <sodipodi:namedview
     id="namedview8"
     pagecolor="#ffffff"
     bordercolor="#000000"
     borderopacity="0.25"
     inkscape:showpageshadow="2"
     inkscape:pageopacity="0.0"
     inkscape:pagecheckerboard="0"
     inkscape:deskcolor="#d1d1d1"
     showgrid="false"
     inkscape:zoom="14.75"
     inkscape:cx="8.1016949"
     inkscape:cy="8"
     inkscape:window-width="1440"
     inkscape:window-height="831"
     inkscape:window-x="0"
     inkscape:window-y="0"
     inkscape:window-maximized="1"
     inkscape:current-layer="svg6" />
  <rect
     class="error"
     style="fill:#ffffff;stroke-width:0;stroke-linejoin:bevel"
     id="rect339"
     width="16"
     height="16"
     x="0"
     y="0" />
  <path
     class="success"
     d="M 8.0000002,0 C 3.5781242,0 0,3.5781242 0,8.0000002 0,12.421876 3.5781242,16 8.0000002,16 12.421876,16 16,12.421876 16,8.0000002 16,3.5781242 12.421876,0 8.0000002,0 Z M 4.0000001,6.0000002 h 7.9999989 c 1.109377,0 2.000001,0.890624 2.000001,2 0,1.109376 -0.890624,2.0000008 -2.000001,2.0000008 H 4.0000001 c -1.1093759,0 -2,-0.8906248 -2,-2.0000008 0,-1.109376 0.8906241,-2 2,-2 z m 0,0"
     fill="#e01b24"
     id="path4"
     style="stroke-width:2" />
</svg>
