<?xml version="1.0" encoding="UTF-8" standalone="no"?>
<svg
   height="17"
   viewBox="0 0 17 17"
   width="17"
   version="1.1"
   id="svg1"
   sodipodi:docname="checkbox-checked-symbolic.svg"
   inkscape:version="1.4.2 (ebf0e940d0, 2025-05-08)"
   xmlns:inkscape="http://www.inkscape.org/namespaces/inkscape"
   xmlns:sodipodi="http://sodipodi.sourceforge.net/DTD/sodipodi-0.dtd"
   xmlns="http://www.w3.org/2000/svg"
   xmlns:svg="http://www.w3.org/2000/svg">
  <defs
     id="defs1" />
  <sodipodi:namedview
     id="namedview1"
     pagecolor="#ffffff"
     bordercolor="#000000"
     borderopacity="0.25"
     inkscape:showpageshadow="2"
     inkscape:pageopacity="0.0"
     inkscape:pagecheckerboard="0"
     inkscape:deskcolor="#d1d1d1"
     inkscape:zoom="21.383338"
     inkscape:cx="2.805923"
     inkscape:cy="11.855025"
     inkscape:window-width="1536"
     inkscape:window-height="891"
     inkscape:window-x="0"
     inkscape:window-y="0"
     inkscape:window-maximized="1"
     inkscape:current-layer="svg1" />
  <path
     d="M 2.9999995,0 C 1.3554685,0 0,1.355469 0,3 v 11 c 0,1.644531 1.3554685,3 2.9999995,3 H 14 c 1.644531,0 3,-1.355469 3,-3 V 3 C 17,1.355469 15.644532,0 14,0 Z m 0,2 H 14 c 0.570313,0 1,0.429688 1,1 v 11 c 0,0.570312 -0.429687,1 -1,1 H 2.9999995 c -0.570312,0 -1,-0.429688 -1,-1 V 3 c 0,-0.570312 0.429688,-1 1,-1 z"
     fill="#2e3434"
     fill-opacity="0.960784"
     id="path1"
     sodipodi:nodetypes="ssssssssssssssssss" />
  <path
     d="m 15.753859,4.659125 c 0.175782,-0.19922 0.261719,-0.46094 0.246094,-0.72265 -0.01953,-0.26563 -0.140625,-0.51172 -0.339844,-0.6875 -0.199218,-0.17579 -0.460937,-0.26563 -0.726562,-0.2461 -0.265625,0.0156 -0.511719,0.14063 -0.6875,0.33985 L 6.949219,11.537792 4.707031,9.2916925 c -0.390625,-0.39062 -1.023437,-0.39062 -1.414062,0 C 3.105469,9.4791925 3,9.7370125 3,10.002632 c 0,0.26563 0.105469,0.51953 0.292969,0.70703 l 3,3 c 0.195312,0.19532 0.464843,0.30078 0.742187,0.29297 0.277344,-0.0117 0.535156,-0.13281 0.71875,-0.34375 z"
     fill="#222222"
     class="highlight"
     id="path1-6"
     sodipodi:nodetypes="cccccccssscccc" />
</svg>
