<?xml version="1.0" encoding="UTF-8" standalone="no"?>
<svg
   height="19"
   viewBox="0 0 19 19"
   width="19"
   version="1.1"
   id="svg1"
   sodipodi:docname="checkbox-checked-symbolic.svg"
   inkscape:version="1.4.2 (ebf0e940d0, 2025-05-08)"
   xmlns:inkscape="http://www.inkscape.org/namespaces/inkscape"
   xmlns:sodipodi="http://sodipodi.sourceforge.net/DTD/sodipodi-0.dtd"
   xmlns="http://www.w3.org/2000/svg"
   xmlns:svg="http://www.w3.org/2000/svg">
  <defs
     id="defs1" />
  <sodipodi:namedview
     id="namedview1"
     pagecolor="#ffffff"
     bordercolor="#000000"
     borderopacity="0.25"
     inkscape:showpageshadow="2"
     inkscape:pageopacity="0.0"
     inkscape:pagecheckerboard="0"
     inkscape:deskcolor="#d1d1d1"
     inkscape:zoom="25.31713"
     inkscape:cx="6.0235897"
     inkscape:cy="13.88388"
     inkscape:window-width="1920"
     inkscape:window-height="1131"
     inkscape:window-x="0"
     inkscape:window-y="0"
     inkscape:window-maximized="1"
     inkscape:current-layer="svg1" />
  <path
     d="M 3.5,0 C 1.85547,0 0,1.855469 0,3.5 v 12 C 0,17.144531 1.85547,19 3.5,19 h 12 C 17.144531,19 19,17.144531 19,15.5 V 3.5 C 19,1.855469 17.144532,0 15.5,0 Z M 18,3.5 C 0,0 0,0 18,3.5 Z"
     class="highlight"
     id="path1"
     sodipodi:nodetypes="sssssssssss" />
  <path
     d="m 15.253906,6.6588827 c 0.175782,-0.199219 0.261719,-0.460938 0.246094,-0.722657 -0.01953,-0.265624 -0.140625,-0.511718 -0.339844,-0.6875 -0.199218,-0.175781 -0.460937,-0.265624 -0.726562,-0.246093 -0.265625,0.015625 -0.511719,0.140625 -0.6875,0.339843 L 7.449219,12.537789 5.207031,10.291695 C 4.816406,9.90107 4.183594,9.90107 3.792969,10.291695 3.605469,10.479195 3.5,10.737008 3.5,11.002633 c 0,0.265625 0.105469,0.519531 0.292969,0.707031 l 3,3 c 0.195312,0.195312 0.464843,0.300781 0.742187,0.292969 0.277344,-0.01172 0.535156,-0.132813 0.71875,-0.34375 z m 0,0"
     id="path1-7" />
</svg>
