<?xml version="1.0" encoding="UTF-8" standalone="no"?>
<svg
   height="19"
   viewBox="0 0 19 19"
   width="19"
   version="1.1"
   id="svg1"
   sodipodi:docname="checkbox-unchecked-symbolic.svg"
   inkscape:version="1.4.2 (ebf0e940d0, 2025-05-08)"
   xmlns:inkscape="http://www.inkscape.org/namespaces/inkscape"
   xmlns:sodipodi="http://sodipodi.sourceforge.net/DTD/sodipodi-0.dtd"
   xmlns="http://www.w3.org/2000/svg"
   xmlns:svg="http://www.w3.org/2000/svg">
  <defs
     id="defs1" />
  <sodipodi:namedview
     id="namedview1"
     pagecolor="#ffffff"
     bordercolor="#000000"
     borderopacity="0.25"
     inkscape:showpageshadow="2"
     inkscape:pageopacity="0.0"
     inkscape:pagecheckerboard="0"
     inkscape:deskcolor="#d1d1d1"
     inkscape:zoom="19.952654"
     inkscape:cx="1.2279068"
     inkscape:cy="14.509348"
     inkscape:window-width="1440"
     inkscape:window-height="831"
     inkscape:window-x="0"
     inkscape:window-y="0"
     inkscape:window-maximized="1"
     inkscape:current-layer="svg1" />
  <path
     d="M 3.5,0 C 1.85547,0 0,1.855469 0,3.5 v 12 C 0,17.144531 1.85547,19 3.5,19 h 12 C 17.144531,19 19,17.144531 19,15.5 V 3.5 C 19,1.855469 17.144532,0 15.5,0 Z m 0,1 h 12 C 16.070313,1 18,2.929688 18,3.5 v 12 C 18,16.070312 16.070313,18 15.5,18 H 3.5 C 2.929688,18 1,16.070312 1,15.5 V 3.5 C 1,2.929688 2.929688,1 3.5,1 Z"
     fill="#2e3434"
     fill-opacity="0.960784"
     id="path1-62"
     sodipodi:nodetypes="ssssssssssssssssss" />
</svg>
