<?xml version="1.0" encoding="UTF-8" standalone="no"?>
<svg
   height="17"
   viewBox="0 0 17 17"
   width="17"
   version="1.1"
   id="svg1"
   sodipodi:docname="checkbox-unchecked-symbolic.svg"
   inkscape:version="1.4.2 (ebf0e940d0, 2025-05-08)"
   xmlns:inkscape="http://www.inkscape.org/namespaces/inkscape"
   xmlns:sodipodi="http://sodipodi.sourceforge.net/DTD/sodipodi-0.dtd"
   xmlns="http://www.w3.org/2000/svg"
   xmlns:svg="http://www.w3.org/2000/svg">
  <defs
     id="defs1" />
  <sodipodi:namedview
     id="namedview1"
     pagecolor="#ffffff"
     bordercolor="#000000"
     borderopacity="0.25"
     inkscape:showpageshadow="2"
     inkscape:pageopacity="0.0"
     inkscape:pagecheckerboard="0"
     inkscape:deskcolor="#d1d1d1"
     inkscape:zoom="8.2540316"
     inkscape:cx="-2.0595996"
     inkscape:cy="32.771864"
     inkscape:window-width="1536"
     inkscape:window-height="891"
     inkscape:window-x="0"
     inkscape:window-y="0"
     inkscape:window-maximized="1"
     inkscape:current-layer="svg1" />
  <path
     d="M 2.9999995,0 C 1.3554685,0 0,1.355469 0,3 v 11 c 0,1.644531 1.3554685,3 2.9999995,3 H 14 c 1.644531,0 3,-1.355469 3,-3 V 3 C 17,1.355469 15.644532,0 14,0 Z m 0,2 H 14 c 0.570313,0 1,0.429688 1,1 v 11 c 0,0.570312 -0.429687,1 -1,1 H 2.9999995 c -0.570312,0 -1,-0.429688 -1,-1 V 3 c 0,-0.570312 0.429688,-1 1,-1 z"
     fill="#2e3434"
     fill-opacity="0.960784"
     id="path1"
     sodipodi:nodetypes="ssssssssssssssssss" />
</svg>
